<?xml version="1.0" standalone="no"?>
<!DOCTYPE svg PUBLIC "-//W3C//DTD SVG 20010904//EN"
 "http://www.w3.org/TR/2001/REC-SVG-20010904/DTD/svg10.dtd">
<svg version="1.0" xmlns="http://www.w3.org/2000/svg"
 width="800.000000pt" height="800.000000pt" viewBox="0 0 800.000000 800.000000"
 preserveAspectRatio="xMidYMid meet">
<metadata>
Created by potrace 1.11, written by Peter Selinger 2001-2013
</metadata>
<g transform="translate(0.000000,800.000000) scale(0.100000,-0.100000)"
fill="#000000" stroke="none">
<path d="M3990 7811 c0 -6 -4 -11 -8 -11 -5 0 -134 -73 -288 -161 -153 -89
-380 -220 -504 -291 -124 -72 -245 -142 -270 -156 -25 -14 -109 -63 -187 -109
-79 -45 -145 -83 -147 -83 -3 0 -41 -22 -86 -50 -45 -27 -83 -50 -84 -50 -2 0
-55 -30 -117 -66 -63 -37 -139 -80 -169 -97 -30 -16 -62 -36 -71 -43 -8 -8
-18 -14 -21 -14 -4 0 -321 -180 -368 -209 -25 -15 -331 -192 -380 -219 -25
-14 -56 -33 -70 -42 -14 -9 -29 -19 -35 -21 -8 -3 -111 -61 -183 -104 -10 -5
-71 -41 -137 -79 -66 -38 -131 -77 -145 -87 l-25 -17 0 -596 c0 -487 -2 -595
-13 -591 -7 2 -15 -2 -17 -10 -16 -51 -13 -49 -41 -30 -25 16 -26 16 -23 -7 5
-34 -8 -50 -30 -38 -24 12 -33 2 -20 -23 13 -24 -3 -37 -34 -29 -21 5 -21 5
-4 -22 20 -30 15 -46 -14 -46 -25 0 -24 -16 2 -30 16 -9 18 -14 8 -26 -6 -8
-19 -14 -28 -14 -11 -1 -7 -8 14 -26 29 -24 29 -25 11 -39 -21 -16 -18 -25 11
-29 17 -3 20 -13 12 -46 -3 -10 4 -15 21 -15 21 0 25 -4 22 -27 -3 -28 19 -40
33 -18 10 16 25 1 25 -26 0 -27 3 -29 30 -12 10 7 22 9 27 5 4 -4 8 -148 8
-319 l1 -312 -40 -38 c-32 -32 -40 -47 -44 -87 -5 -56 15 -103 56 -129 l27
-17 0 -604 0 -603 25 -18 c21 -15 1032 -600 1170 -678 25 -13 93 -53 153 -88
59 -35 109 -64 111 -64 2 0 34 -19 72 -41 37 -23 88 -53 113 -67 25 -14 215
-123 421 -242 574 -332 642 -371 685 -395 22 -13 123 -71 225 -130 102 -59
208 -121 235 -137 93 -54 92 -54 133 -31 34 19 202 115 240 138 10 6 152 88
317 183 165 95 307 178 315 183 8 5 85 49 170 98 85 49 171 98 190 110 19 11
42 24 50 28 8 4 47 26 85 48 39 23 90 53 115 67 25 14 101 58 170 98 69 40
150 86 180 103 30 16 66 38 80 47 14 9 50 30 80 47 30 16 123 69 205 117 83
48 159 92 170 98 152 87 450 261 482 281 24 15 45 27 47 27 2 0 44 23 93 51
225 131 256 149 264 149 5 0 10 3 10 8 1 4 3 279 4 612 1 333 3 613 4 624 1
12 6 16 16 12 8 -3 15 -1 15 4 0 14 27 12 33 -2 3 -7 6 -2 6 11 1 21 3 22 18
10 15 -13 16 -12 10 9 -5 22 -3 23 20 17 23 -5 25 -4 14 9 -12 14 -10 16 8 16
11 0 21 5 21 10 0 6 -5 10 -11 10 -5 0 -8 4 -4 10 3 5 13 6 22 3 12 -5 15 -2
10 10 -4 11 -1 17 8 17 18 0 19 12 3 28 -9 9 -6 12 15 12 28 0 37 -14 15 -23
-10 -4 -10 -8 1 -15 12 -8 12 -14 3 -25 -10 -12 -9 -16 3 -21 8 -3 15 -14 15
-25 0 -13 5 -19 14 -15 9 3 13 -1 13 -13 -1 -10 4 -17 11 -16 6 2 12 -4 12
-12 0 -8 9 -15 21 -15 13 0 18 -4 13 -12 -5 -7 0 -9 14 -6 13 4 23 0 27 -10 5
-14 7 -14 15 -2 7 11 11 11 23 1 9 -7 18 -8 21 -2 3 5 15 7 26 4 11 -3 20 -1
20 5 0 6 10 8 22 4 17 -4 20 -2 15 11 -5 13 -1 16 16 14 14 -1 21 3 19 12 -2
8 3 11 13 8 10 -5 15 0 15 13 0 11 7 20 15 20 18 0 19 11 3 29 -8 8 -8 11 -2
8 7 -4 17 -1 23 7 9 11 9 15 -1 19 -9 3 -7 9 7 21 19 15 19 15 1 16 -16 0 -16
2 -5 16 10 13 10 17 -1 24 -11 7 -11 11 -1 24 11 13 11 16 -3 16 -9 0 -16 8
-16 20 0 11 -5 20 -11 20 -6 0 -9 7 -5 15 3 9 0 15 -10 15 -8 0 -17 7 -20 15
-4 10 -13 13 -25 10 -13 -5 -19 -2 -17 7 2 7 -4 13 -12 13 -8 0 -19 6 -24 14
-7 11 -10 11 -16 0 -7 -10 -12 -10 -23 0 -11 8 -17 9 -22 1 -4 -6 -15 -8 -26
-5 -11 4 -19 2 -19 -5 0 -7 -8 -9 -21 -5 -15 5 -19 4 -15 -4 4 -6 0 -11 -8
-11 -19 0 -56 -35 -56 -53 0 -7 -12 -14 -26 -15 -23 -2 -25 0 -14 13 11 13 10
18 -6 30 -17 13 -17 14 -2 15 9 0 20 4 23 10 3 5 0 7 -8 4 -8 -3 -17 2 -20 10
-4 10 -1 16 8 16 8 0 15 4 15 10 0 5 -7 7 -15 4 -8 -4 -15 -1 -15 5 0 6 5 11
10 11 6 0 10 7 10 15 0 9 -6 12 -15 9 -8 -4 -15 -1 -15 5 0 6 5 11 10 11 6 0
10 5 10 11 0 5 -4 7 -10 4 -5 -3 -15 -3 -22 1 -7 5 -5 11 7 21 18 12 18 13 -4
13 -19 0 -21 4 -15 22 6 20 5 21 -9 10 -9 -8 -18 -9 -21 -3 -4 5 -2 12 4 16
20 13 10 26 -11 14 -20 -10 -21 -9 -16 10 4 18 2 21 -15 15 -16 -5 -20 -3 -15
10 3 8 2 18 -2 21 -5 3 -12 -2 -15 -11 -9 -23 -25 -8 -19 19 4 19 3 20 -7 5
-13 -22 -34 -24 -27 -3 4 8 2 17 -3 20 -4 3 -10 0 -12 -6 -2 -6 -3 110 -3 257
l0 269 33 2 c57 5 66 -17 67 -164 l0 -128 53 -1 52 -1 0 138 c0 76 -5 150 -10
164 -20 53 -63 78 -137 78 -29 0 -54 2 -54 6 -1 3 -2 302 -3 663 -1 422 -5
660 -11 667 -6 5 -24 17 -42 28 -18 10 -68 39 -112 66 -44 26 -85 47 -91 47
-5 0 -10 5 -10 10 0 6 -4 10 -9 10 -6 0 -60 29 -121 65 -61 36 -130 76 -153
89 -23 13 -125 72 -227 131 -102 59 -203 117 -225 130 -22 12 -64 36 -93 54
-29 17 -57 31 -62 31 -6 0 -10 5 -10 10 0 6 -4 10 -9 10 -6 0 -151 82 -323
181 -172 100 -328 190 -345 200 -18 10 -119 69 -225 130 -106 61 -206 119
-223 129 -69 39 -351 202 -365 211 -8 5 -141 82 -295 170 -154 89 -299 172
-322 186 -24 14 -43 20 -43 14z m-3296 -3358 c-1 -71 -2 -130 -3 -132 -3 -11
-61 55 -61 69 0 9 -3 20 -7 24 -23 23 16 133 55 156 9 5 17 10 17 10 0 0 0
-57 -1 -127z m6699 -621 l21 -23 -27 -26 c-21 -22 -29 -25 -39 -15 -10 10 -10
17 0 32 14 22 -3 39 -21 21 -19 -19 -25 -12 -22 27 1 20 3 38 4 40 2 7 63 -34
84 -56z m74 -175 c5 -3 7 -22 5 -42 -4 -34 -6 -36 -38 -33 -33 3 -45 23 -15
23 23 0 25 26 2 32 -21 5 -26 14 -15 25 6 7 47 4 61 -5z m287 -5 c3 -5 -8 -9
-24 -9 -17 0 -30 4 -30 9 0 4 11 8 24 8 14 0 27 -4 30 -8z m-110 -36 c-10 -8
-21 -12 -24 -9 -3 2 4 11 14 19 11 7 22 12 25 9 2 -3 -4 -12 -15 -19z m181 4
c10 -11 14 -20 8 -20 -5 0 -18 9 -28 20 -10 11 -14 20 -8 20 5 0 18 -9 28 -20z
m-286 -51 c-16 -10 -23 -4 -14 10 3 6 11 8 17 5 6 -4 5 -9 -3 -15z m54 -19
c-5 -20 -23 -38 -23 -23 1 22 13 52 20 48 5 -3 6 -14 3 -25z m289 -34 c-2 -4
-8 -2 -13 5 -4 7 -6 16 -3 20 2 4 0 10 -6 14 -6 4 -7 11 -4 17 8 12 34 -43 26
-56z m-342 23 c0 -4 -7 -9 -15 -13 -9 -3 -15 0 -15 8 0 7 7 13 15 13 8 0 15
-4 15 -8z m228 -33 c4 -20 -25 -56 -44 -56 -7 0 -22 12 -34 27 l-22 28 27 23
c24 21 29 22 49 9 11 -8 23 -22 24 -31z m-406 -33 c10 -9 18 -22 18 -29 0 -11
-58 -54 -74 -54 -12 0 -6 28 9 40 10 9 12 17 5 30 -17 32 11 41 42 13z m-6666
-43 c1 -22 -3 -37 -7 -34 -5 3 -9 24 -9 46 0 52 14 41 16 -12z m7182 25 c-6
-14 -15 -25 -19 -25 -5 0 -3 11 3 25 6 14 15 25 19 25 5 0 3 -11 -3 -25z
m-285 -5 c3 -11 1 -20 -4 -20 -5 0 -9 2 -9 4 0 2 -3 11 -6 20 -3 9 -2 16 4 16
5 0 12 -9 15 -20z m66 -89 c-6 -2 -21 7 -33 19 l-21 23 33 -19 c18 -10 28 -20
21 -23z m167 13 c-30 -21 -45 -16 -16 6 14 10 27 16 30 13 3 -2 -4 -11 -14
-19z m-80 -27 c4 -4 -5 -7 -19 -7 -15 0 -27 4 -27 8 0 10 36 9 46 -1z"/>
<path d="M174 4693 c-178 -61 -193 -406 -21 -483 32 -14 66 -17 175 -16 l137
1 0 45 0 44 -115 1 c-131 1 -152 9 -176 63 -35 77 -9 236 41 256 9 3 68 6 131
6 63 0 114 3 115 8 2 10 2 65 0 80 -1 18 -231 14 -287 -5z"/>
<path d="M7711 4568 c-56 -10 -95 -39 -120 -92 -26 -54 -29 -118 -7 -171 37
-87 89 -117 202 -114 41 1 77 -1 80 -4 4 -3 -4 -16 -17 -29 -22 -22 -31 -24
-131 -23 -116 1 -118 0 -110 -57 l4 -27 138 2 c142 2 150 4 193 51 9 10 17 22
18 25 0 3 3 15 6 26 10 42 9 415 -2 416 -50 5 -221 3 -254 -3z m150 -95 c1
-22 1 -138 0 -173 -1 -24 -4 -26 -56 -24 -31 1 -65 8 -79 17 -47 31 -47 139 1
177 35 27 132 29 134 3z"/>
<path d="M77 3562 c-35 -3 -38 -6 -35 -29 3 -26 5 -26 77 -27 58 -1 76 -5 85
-18 15 -25 5 -29 -69 -29 -58 0 -71 -4 -92 -25 -28 -28 -27 -72 3 -105 15 -16
32 -19 127 -19 104 0 109 1 104 20 -3 11 -2 20 1 20 9 0 6 121 -3 151 -14 45
-31 52 -135 62 -14 2 -42 1 -63 -1z m133 -167 c0 -8 1 -18 3 -22 1 -5 -17 -11
-41 -14 -51 -7 -91 14 -71 37 16 20 109 19 109 -1z"/>
<path d="M348 3562 c-16 -3 -18 -17 -18 -128 l0 -124 36 0 c34 0 35 2 34 33
-1 17 -2 62 -1 98 l1 66 40 -3 c22 -2 45 -6 50 -9 6 -3 10 -39 9 -78 -2 -113
-3 -109 34 -105 l32 3 2 97 c1 89 -1 99 -22 122 -20 21 -34 26 -77 27 -29 0
-64 1 -78 2 -14 2 -33 1 -42 -1z"/>
</g>
</svg>
